<svg width="160" height="160" viewBox="0 0 160 160" fill="none" xmlns="http://www.w3.org/2000/svg">
<path d="M112.838 36.6401L112.443 34.6455C111.221 28.4877 104.829 24.8392 98.9057 26.9188C95.2249 28.2112 91.1012 27.0441 88.6133 24.0334C84.4263 18.9664 76.5737 18.9664 72.3867 24.0334C69.8988 27.0441 65.7751 28.2112 62.0943 26.9188C56.171 24.8392 49.7789 28.4877 48.5575 34.6455L48.1618 36.6401C47.4409 40.2747 44.6725 43.1584 41.0703 44.027L39.8847 44.3129C34.0689 45.7153 30.5983 51.6863 32.2583 57.4339L33.1805 60.6268C34.1384 63.9434 33.2218 67.5186 30.7863 69.9651L28.6688 72.0922C24.5907 76.1888 24.5907 82.8112 28.6688 86.9078L30.7863 89.0349C33.2218 91.4814 34.1384 95.0566 33.1805 98.3732L32.2583 101.566C30.5983 107.314 34.0689 113.285 39.8847 114.687L41.0703 114.973C44.6725 115.842 47.4409 118.725 48.1618 122.36L48.5575 124.355C49.7789 130.512 56.171 134.161 62.0943 132.081C65.7751 130.789 69.8988 131.956 72.3867 134.967C76.5737 140.034 84.4263 140.034 88.6133 134.967C91.1012 131.956 95.2249 130.789 98.9057 132.081C104.829 134.161 111.221 130.512 112.443 124.355L112.838 122.36C113.559 118.725 116.328 115.842 119.93 114.973L121.115 114.687C126.931 113.285 130.402 107.314 128.742 101.566L127.819 98.3732C126.862 95.0566 127.778 91.4814 130.214 89.0349L132.331 86.9078C136.409 82.8112 136.409 76.1888 132.331 72.0922L130.214 69.9651C127.778 67.5186 126.862 63.9434 127.819 60.6268L128.742 57.4339C130.402 51.6863 126.931 45.7153 121.115 44.313L119.93 44.027C116.328 43.1584 113.559 40.2747 112.838 36.6401Z" stroke="black"/>
</svg>
