<svg width="50" height="50" viewBox="0 0 50 50" fill="none" xmlns="http://www.w3.org/2000/svg">
<path d="M33.952 12.029L33.8517 11.5149C33.4716 9.56635 31.4462 8.41311 29.5766 9.08065C28.6831 9.39964 27.6737 9.11278 27.072 8.37227C25.7532 6.74939 23.2468 6.74939 21.928 8.37227C21.3263 9.11278 20.3169 9.39964 19.4234 9.08065C17.5538 8.41311 15.5284 9.56635 15.1483 11.5149L15.048 12.029C14.8582 13.0023 14.1201 13.7765 13.157 14.0127C11.2072 14.4908 10.0434 16.4916 10.5919 18.4229L10.7238 18.8872C11.0118 19.9012 10.7345 20.9919 9.99706 21.7452C8.49848 23.276 8.49848 25.724 9.99706 27.2548C10.7345 28.0081 11.0118 29.0988 10.7238 30.1128L10.5919 30.5771C10.0434 32.5084 11.2072 34.5092 13.157 34.9873C14.1201 35.2235 14.8582 35.9977 15.048 36.971L15.1483 37.4851C15.5284 39.4337 17.5538 40.5869 19.4234 39.9193C20.3169 39.6004 21.3263 39.8872 21.928 40.6277C23.2468 42.2506 25.7532 42.2506 27.072 40.6277C27.6737 39.8872 28.6831 39.6004 29.5766 39.9193C31.4462 40.5869 33.4716 39.4337 33.8517 37.4851L33.952 36.971C34.1418 35.9977 34.8799 35.2235 35.843 34.9873C37.7928 34.5092 38.9566 32.5084 38.4081 30.5771L38.2762 30.1128C37.9882 29.0988 38.2655 28.0081 39.0029 27.2548C40.5015 25.724 40.5015 23.276 39.0029 21.7452C38.2655 20.9919 37.9882 19.9012 38.2762 18.8872L38.4081 18.4229C38.9566 16.4916 37.7928 14.4908 35.843 14.0127C34.8799 13.7765 34.1418 13.0023 33.952 12.029Z" stroke="black"/>
</svg>
