<svg width="300" height="300" viewBox="0 0 300 300" xmlns="http://www.w3.org/2000/svg">
<g clip-path="url(#clip0_4_119)">
<path d="M263 263.5H264.208L264.466 262.319L272.542 225.262C284.06 172.417 283.587 117.663 271.158 65.0257C268.782 54.9607 254.83 54.0079 251.107 63.6564L214.348 158.93C212.286 164.274 204.63 163.991 202.969 158.508L163.254 27.4227C159.398 14.6961 141.405 14.6229 137.446 27.3176L96.4097 158.894C94.7448 164.233 87.2662 164.44 85.3073 159.203L49.7561 64.1501C46.1287 54.4518 32.1296 55.3353 29.7502 65.4126C17.382 117.796 16.9114 172.285 28.3731 224.873L36.5344 262.319L36.7917 263.5H38H263Z" stroke="black" stroke-width="3"/>
</g>
</svg>
